Coordinates
version=1
nRows=32
nColumns=18
inDegrees=yes

Units are S.I. units (second, meters, Newtons, ...)
If the header above contains a line with 'inDegrees', this indicates whether rotational values are in degrees (yes) or radians (no).

endheader
time	ground_thorax_rot_x	ground_thorax_rot_y	ground_thorax_rot_z	ground_thorax_tx	ground_thorax_ty	ground_thorax_tz	clav_prot	clav_elev	scapula_abduction	scapula_elevation	scapula_upward_rot	scapula_winging	plane_elv	shoulder_elv	axial_rot	elbow_flexion	pro_sup
      6.21000000	      3.33485971	     -1.14623388	     -7.56073661	     -0.00514022	      0.00540163	      0.00114815	    -32.49248817	     -1.25754282	    -28.61289294	     -3.03676741	     15.45244772	      2.63820567	     -7.24514091	     20.72959937	      7.07703063	      0.00000000	     34.32000000
      6.22000000	      3.25410254	     -1.15227108	     -7.58246357	     -0.00509411	      0.00542226	      0.00099871	    -32.56867760	     -1.30801755	    -28.74470248	     -3.07005552	     15.41101165	      2.64273310	     -7.61431790	     20.36237996	      7.19370534	      0.00000000	     34.32000000
      6.23000000	      3.33226056	     -1.19278821	     -7.59148077	     -0.00513859	      0.00561909	      0.00088292	    -32.56395458	     -1.31223641	    -28.77854726	     -3.05459004	     15.33981169	      2.66400313	     -7.65036301	     20.28608863	      7.19598924	      0.00000000	     34.32000000
      6.24000000	      3.13967765	     -1.06632938	     -7.41172575	     -0.00531528	      0.00582365	      0.00073241	    -32.67183185	     -1.34347640	    -28.70864642	     -3.18576589	     15.72753378	      2.54062492	     -9.74366992	     19.37608512	     10.84647952	      0.00000000	     34.32000000
      6.25000000	      3.20944494	     -1.06896963	     -7.41894681	     -0.00524806	      0.00590092	      0.00077640	    -32.65511567	     -1.34916785	    -28.71953403	     -3.17204309	     15.66233146	      2.56486908	     -9.75851981	     19.31138285	     10.84236561	      0.00000000	     34.32000000
      6.26000000	      3.25831680	     -1.03486501	     -7.47331541	     -0.00512363	      0.00580217	      0.00081582	    -32.62219323	     -1.32778238	    -28.73568559	     -3.12695864	     15.55886244	      2.59480942	     -9.79338985	     19.20974994	     10.84132815	      0.00000000	     34.32000000
      6.27000000	      3.35099375	     -1.04291497	     -7.49232461	     -0.00502158	      0.00575970	      0.00091610	    -32.60617621	     -1.33234679	    -28.76116106	     -3.10698176	     15.47175233	      2.62349184	     -9.82251352	     19.13720736	     10.83941229	      0.00000000	     34.32000000
      6.28000000	      3.43445852	     -1.05192962	     -7.52383387	     -0.00495135	      0.00568125	      0.00095131	    -32.59159160	     -1.33267353	    -28.79683642	     -3.08057373	     15.37272003	      2.65369030	     -9.86253013	     19.05414982	     10.84002994	      0.00000000	     34.32000000
      6.29000000	      3.32530189	     -0.96382134	     -7.55822715	     -0.00495742	      0.00549499	      0.00080549	    -32.61367914	     -1.35312306	    -28.92642957	     -3.05468194	     15.20536277	      2.69745238	    -10.03778077	     18.79915568	     10.89187307	      0.00000000	     34.32000000
      6.30000000	      3.38736650	     -0.96297138	     -7.54894730	     -0.00493846	      0.00567790	      0.00068825	    -32.60280214	     -1.36992243	    -28.94012898	     -3.05076195	     15.14427413	      2.72157224	    -10.05781234	     18.72253424	     10.89191238	      0.00000000	     34.32000000
      6.31000000	      3.22526967	     -0.92902777	     -7.57747017	     -0.00493252	      0.00554538	      0.00063615	    -32.62262726	     -1.34613307	    -29.03876287	     -3.00893390	     15.04559007	      2.73476490	    -10.21847858	     18.39846119	     10.95642802	      0.00000000	     34.32000000
      6.32000000	      3.26072552	     -0.93011068	     -7.59093843	     -0.00492679	      0.00561969	      0.00065733	    -32.62010201	     -1.34615228	    -29.05458928	     -3.00015522	     15.01229272	      2.74423092	    -10.24539300	     18.36108516	     10.96527533	      0.00000000	     34.32000000
      6.33000000	      3.22020767	     -0.39383141	     -7.53221048	     -0.00512668	      0.00568431	      0.00044948	    -32.95833599	     -1.37493887	    -29.50624436	     -3.08430409	     15.15221636	      2.61868371	    -11.60923301	     18.06851224	     11.87996194	      0.00000000	     34.32000000
      6.34000000	      3.29947282	     -0.41088506	     -7.55145096	     -0.00508750	      0.00561798	      0.00052656	    -32.94609926	     -1.38227681	    -29.51747840	     -3.07455963	     15.09665015	      2.63902019	    -11.63002471	     18.04081432	     11.89172898	      0.00000000	     34.32000000
      6.35000000	      3.39165859	     -0.42829615	     -7.57017612	     -0.00506181	      0.00553499	      0.00056181	    -32.93012583	     -1.39808574	    -29.53046929	     -3.06636248	     15.02352975	      2.66760390	    -11.65745013	     17.99440240	     11.90642715	      0.00000000	     34.32000000
      6.36000000	      3.47005119	     -0.44211992	     -7.58655594	     -0.00503240	      0.00552415	      0.00056210	    -32.91258730	     -1.41361167	    -29.54309570	     -3.05689384	     14.94686276	      2.69747973	    -11.68610616	     17.92940340	     11.91966235	      0.00000000	     34.32000000
      6.37000000	      3.40255271	     -0.41364464	     -7.66925787	     -0.00495516	      0.00534694	      0.00047411	    -32.87327708	     -1.42801953	    -29.54483071	     -3.03450965	     14.83019726	      2.74382225	    -11.79706452	     17.74105723	     12.01814482	      0.00000000	     34.32000000
      6.38000000	      3.45174256	     -0.42322439	     -7.66475897	     -0.00488277	      0.00544095	      0.00046634	    -32.86748146	     -1.44320110	    -29.55643156	     -3.03429743	     14.78693302	      2.76140489	    -11.81962953	     17.68928645	     12.02798757	      0.00000000	     34.32000000
      6.39000000	      3.13936146	     -0.06049911	     -7.60061971	     -0.00500617	      0.00574792	      0.00006296	    -33.09204127	     -1.77996169	    -29.63197615	     -3.38328380	     15.08799715	      2.72098564	    -14.84146830	     17.03219989	     15.38346861	      0.00000000	     34.32000000
      6.40000000	      3.17867075	     -0.08394923	     -7.61409526	     -0.00502130	      0.00581377	      0.00010702	    -33.07825651	     -1.76589584	    -29.64078362	     -3.36025053	     15.04361753	      2.73205768	    -14.85195944	     16.99329531	     15.39490830	      0.00000000	     34.32000000
      6.41000000	      3.15665354	     -0.09922561	     -7.63456353	     -0.00509095	      0.00570554	      0.00017861	    -33.00383351	     -1.68170467	    -29.58476777	     -3.27485071	     14.98104781	      2.74387274	    -14.87345652	     16.86077721	     15.46416245	      0.00000000	     34.32000000
      6.42000000	      3.20304079	     -0.10447268	     -7.63453936	     -0.00511504	      0.00573484	      0.00026960	    -32.98786678	     -1.68139798	    -29.57905870	     -3.26479590	     14.94775978	      2.75709497	    -14.88468425	     16.82676544	     15.47339526	      0.00000000	     34.32000000
      6.43000000	      3.24563044	     -0.09046115	     -7.68035884	     -0.00511150	      0.00558793	      0.00028707	    -32.90021802	     -1.61775515	    -29.48365425	     -3.19894768	     14.90493221	      2.77410501	    -14.95209007	     16.77743452	     15.57490411	      0.00000000	     34.32000000
      6.44000000	      3.29010244	     -0.11682193	     -7.69155027	     -0.00507323	      0.00561262	      0.00037430	    -32.89078430	     -1.61096183	    -29.49185996	     -3.18388209	     14.86927012	      2.78404746	    -14.97358989	     16.75608176	     15.58666317	      0.00000000	     34.32000000
      6.45000000	      3.31487595	     -0.14533968	     -7.71889925	     -0.00501073	      0.00562086	      0.00040021	    -32.87893501	     -1.58985146	    -29.50043525	     -3.15793530	     14.83401508	      2.79020442	    -15.00032659	     16.73877237	     15.60294810	      0.00000000	     34.32000000
      6.46000000	      3.35097025	     -0.17684035	     -7.74580535	     -0.00495244	      0.00561846	      0.00039196	    -32.86645202	     -1.57178144	    -29.51468536	     -3.13089568	     14.78589696	      2.80085843	    -15.02832215	     16.71196641	     15.61801285	      0.00000000	     34.32000000
      6.47000000	      3.38927186	     -0.20419644	     -7.76134422	     -0.00490119	      0.00555171	      0.00031739	    -32.85538313	     -1.56370050	    -29.52926148	     -3.11093699	     14.73570595	      2.81472408	    -15.05271262	     16.67942906	     15.63269269	      0.00000000	     34.32000000
      6.48000000	      3.16949487	     -0.32928286	     -7.50929000	     -0.00501612	      0.00576933	      0.00015661	    -32.75961424	     -1.64185404	    -29.15989440	     -3.24503056	     15.05564736	      2.78270810	    -17.72779192	     15.82194388	     21.88509568	      0.00000000	     34.32000000
      6.49000000	      3.19771972	     -0.38126369	     -7.53116904	     -0.00496055	      0.00580276	      0.00003499	    -32.75826392	     -1.63064745	    -29.20133053	     -3.21918896	     14.98851582	      2.79713736	    -17.74588735	     15.75580274	     21.88451533	      0.00000000	     34.32000000
      6.50000000	      3.09823582	     -0.47125109	     -7.54251024	     -0.00499219	      0.00571368	      0.00005832	    -32.75179365	     -1.59658763	    -29.25938781	     -3.16830861	     14.89210708	      2.81350589	    -17.76507585	     15.55442854	     21.89784299	      0.00000000	     34.32000000
      6.51000000	      3.13796940	     -0.50833281	     -7.56585589	     -0.00508106	      0.00571250	      0.00016075	    -32.74957669	     -1.59037887	    -29.27863161	     -3.15413796	     14.85666464	      2.82165006	    -17.77977585	     15.54233905	     21.90183218	      0.00000000	     34.32000000
      6.52000000	      3.17020674	     -0.53456556	     -7.58166153	     -0.00515047	      0.00565787	      0.00028488	    -32.74484348	     -1.58798944	    -29.28657516	     -3.14551926	     14.83176137	      2.82879077	    -17.79263008	     15.53565291	     21.90699455	      0.00000000	     34.32000000
